<?xml version="1.0" standalone="no"?>
<!DOCTYPE svg PUBLIC "-//W3C//DTD SVG 20010904//EN"
 "http://www.w3.org/TR/2001/REC-SVG-20010904/DTD/svg10.dtd">
<svg version="1.0" xmlns="http://www.w3.org/2000/svg"
 width="700.000000pt" height="700.000000pt" viewBox="0 0 700.000000 700.000000"
 preserveAspectRatio="xMidYMid meet">
<metadata>
Created by potrace 1.14, written by Peter Selinger 2001-2017
</metadata>
<g transform="translate(0.000000,700.000000) scale(0.100000,-0.100000)"
fill="#000000" stroke="none">
<path d="M3378 6415 c-2 -1 -48 -5 -103 -9 -55 -3 -120 -9 -145 -12 -43 -6
-294 -52 -315 -58 -5 -2 -23 -6 -40 -10 -243 -62 -593 -209 -775 -327 -25 -16
-52 -32 -60 -36 -24 -11 -180 -122 -240 -170 -347 -278 -607 -596 -802 -978
-100 -195 -209 -496 -244 -670 -2 -11 -6 -31 -9 -45 -8 -37 -13 -63 -19 -106
-4 -22 -11 -66 -16 -99 -30 -187 -32 -535 -5 -765 12 -102 60 -323 96 -448 98
-334 243 -624 466 -932 104 -143 311 -359 479 -500 385 -323 944 -571 1429
-635 28 -4 61 -9 75 -11 147 -23 590 -23 705 1 11 2 42 7 69 10 442 53 963
273 1346 569 625 483 1008 1147 1125 1949 25 173 25 557 -1 727 -57 388 -146
675 -306 980 -65 126 -221 371 -285 449 -354 434 -739 724 -1212 915 -118 48
-319 114 -401 131 -264 58 -410 75 -652 80 -86 1 -159 1 -160 0z m-170 -1031
l-3 -426 -753 0 c-414 0 -755 2 -758 5 -8 8 36 57 171 192 272 273 599 467
980 581 44 14 89 26 100 29 11 2 54 10 95 19 89 18 117 23 148 25 l22 1 -2
-426z m-5 -1013 c4 0 7 -131 7 -291 l0 -290 -1011 0 -1011 0 6 48 c3 26 8 58
11 72 2 14 6 36 8 50 15 83 92 340 118 395 10 20 18 20 937 19 510 -1 930 -2
935 -3z m7 -1451 c0 -159 -3 -291 -7 -291 -25 -4 -1856 -3 -1862 1 -30 22
-126 369 -148 538 l-5 42 1011 0 1011 0 0 -290z m-37 -879 l37 -1 0 -425 c0
-412 -1 -425 -19 -425 -39 0 -269 50 -366 80 -298 91 -587 248 -826 449 -99
82 -309 298 -309 316 0 8 1043 12 1483 6z"/>
</g>
</svg>
